# xmcd
#
# Track frame offsets:
#	150
#	13397
#	22682
#	36286
#	48339
#	60564
#	70081
#	78017
#	91847
#	102870
#	112772
#	123638
#	129274
#	142148
#	152802
#	161137
#	170672
#
# Disc length: 2454 seconds
#
# Revision: 0
# Processed by: cddbd v1.5.2PL0 Copyright (c) Steve Scherf et al.
# Submitted via: EasyCDDAExtractor 8.2.3.1
#
DISCID=d8099411
DTITLE=Mike Paramore, Guitarist - Pickin On Patch
DYEAR=2007
DGENRE=Bluegrass
TTITLE0=Rejoice In The Lord
TTITLE1=Wiggle Worm
TTITLE2=Lord I Need You
TTITLE3=God's Perfect Lamb
TTITLE4=My Sin Is Ever Before Me
TTITLE5=Jonah
TTITLE6=Little By Little
TTITLE7=How Can I Fear
TTITLE8=My Very Best Friend
TTITLE9=Poochie Lip
TTITLE10=I'm Goin' Home
TTITLE11=All That I Need
TTITLE12=Cool Water
TTITLE13=Trusty Sword
TTITLE14=Initiative
TTITLE15=Harmony At Home
TTITLE16=Bow The Knee
EXTD=
EXTT0=
EXTT1=
EXTT2=
EXTT3=
EXTT4=
EXTT5=
EXTT6=
EXTT7=
EXTT8=
EXTT9=
EXTT10=
EXTT11=
EXTT12=
EXTT13=
EXTT14=
EXTT15=
EXTT16=
PLAYORDER=
